<?xml version="1.0" encoding="utf-8"?>
<!-- Generator: Adobe Illustrator 26.3.1, SVG Export Plug-In . SVG Version: 6.00 Build 0)  -->
<svg version="1.1" id="Layer_1" xmlns="http://www.w3.org/2000/svg" xmlns:xlink="http://www.w3.org/1999/xlink" x="0px" y="0px"
	 viewBox="0 0 1000 275.6" style="enable-background:new 0 0 1000 275.6;" xml:space="preserve">
<style type="text/css">
	.st0{fill:url(#SVGID_1_);}
	.st1{fill:url(#SVGID_00000002375772130127764980000010933690942238633856_);}
	.st2{fill:url(#SVGID_00000121993150002454192350000013099430009973287828_);}
	.st3{fill:url(#SVGID_00000180332543635123945850000007666281623241251747_);}
	.st4{fill:url(#SVGID_00000000943593808459330040000007424213959860054170_);}
	.st5{fill:url(#SVGID_00000065071460135716939100000017689822542285533631_);}
	.st6{fill:url(#SVGID_00000064315231956304569600000008658449872330240949_);}
	.st7{fill:#231F20;}
	.st8{fill:#C33C5B;}
</style>
<g>
	<g>
		<linearGradient id="SVGID_1_" gradientUnits="userSpaceOnUse" x1="741.3604" y1="133.965" x2="1000.4804" y2="133.965">
			<stop  offset="0" style="stop-color:#5466A6"/>
			<stop  offset="0.1374" style="stop-color:#5A64A2"/>
			<stop  offset="0.3284" style="stop-color:#6C5D97"/>
			<stop  offset="0.5501" style="stop-color:#8A5285"/>
			<stop  offset="0.5513" style="stop-color:#8A5285"/>
			<stop  offset="0.594" style="stop-color:#7B578D"/>
			<stop  offset="0.6738" style="stop-color:#645D9A"/>
			<stop  offset="0.7491" style="stop-color:#5662A1"/>
			<stop  offset="0.8146" style="stop-color:#5163A4"/>
			<stop  offset="1" style="stop-color:#5163A4"/>
		</linearGradient>
		<path class="st0" d="M1000.4,216c-76-1.3-93.2-36.2-119.2-89c-1.9-3.8-3.8-7.8-5.8-11.8c-27.9-55.8-83.6-56.8-113.6-57.3
			c-1.9,0-3.8-0.1-5.5-0.1l-15,0v-5.8h15c1.7,0,3.6,0.1,5.5,0.1c28.9,0.5,89.2,1.6,118.6,60.5c2,4,4,8,5.9,11.8
			c26,52.7,41.7,84.5,114.1,85.8L1000.4,216z"/>
		
			<linearGradient id="SVGID_00000005989474683163300200000016892823762398454162_" gradientUnits="userSpaceOnUse" x1="741.3604" y1="120.4233" x2="1000.4713" y2="120.4233">
			<stop  offset="0" style="stop-color:#80578D"/>
			<stop  offset="0.2581" style="stop-color:#84558A"/>
			<stop  offset="0.5" style="stop-color:#8F4E82"/>
			<stop  offset="0.5315" style="stop-color:#8A4F84"/>
			<stop  offset="0.6559" style="stop-color:#7C538A"/>
			<stop  offset="0.7617" style="stop-color:#77548C"/>
			<stop  offset="1" style="stop-color:#77548C"/>
		</linearGradient>
		<path style="fill:url(#SVGID_00000005989474683163300200000016892823762398454162_);" d="M1000.4,201.9
			c-75.6-1.3-92.8-36.1-118.7-88.7c-1.9-3.8-3.8-7.8-5.8-11.8c-28.1-56.1-84-57.1-114-57.7c-1.9,0-3.8-0.1-5.4-0.1l-15,0V39h15
			c1.7,0,3.5,0.1,5.5,0.1c28.8,0.5,88.8,1.6,118.1,60.2c2,4,4,8,5.9,11.8c26.1,52.9,41.8,84.8,114.6,86.1L1000.4,201.9z"/>
		
			<linearGradient id="SVGID_00000145041989615954322460000008375422315278536339_" gradientUnits="userSpaceOnUse" x1="741.3604" y1="106.8796" x2="1000.4622" y2="106.8796">
			<stop  offset="0" style="stop-color:#B24071"/>
			<stop  offset="0.208" style="stop-color:#AE4072"/>
			<stop  offset="0.4134" style="stop-color:#A23F74"/>
			<stop  offset="0.5583" style="stop-color:#953F77"/>
			<stop  offset="0.6247" style="stop-color:#A34074"/>
			<stop  offset="0.7183" style="stop-color:#B14272"/>
			<stop  offset="0.8001" style="stop-color:#B64271"/>
			<stop  offset="1" style="stop-color:#B64271"/>
		</linearGradient>
		<path style="fill:url(#SVGID_00000145041989615954322460000008375422315278536339_);" d="M1000.4,187.8
			c-75.3-1.3-92.4-35.9-118.2-88.4c-1.9-3.8-3.8-7.8-5.8-11.8c-28.2-56.4-84.4-57.4-114.5-58c-1.9,0-3.8-0.1-5.4-0.1h-15V26h15
			c1.7,0,3.5,0.1,5.5,0.1c28.7,0.5,88.5,1.6,117.6,59.9c2,4,4,8,5.9,11.8c26.2,53.1,42,85.1,115.1,86.4L1000.4,187.8z"/>
		
			<linearGradient id="SVGID_00000155861089572679008620000014161836350785169549_" gradientUnits="userSpaceOnUse" x1="741.3604" y1="93.3372" x2="1000.4517" y2="93.3372">
			<stop  offset="0" style="stop-color:#D22B5B"/>
			<stop  offset="0.2054" style="stop-color:#B24071"/>
			<stop  offset="0.3941" style="stop-color:#B04071"/>
			<stop  offset="0.462" style="stop-color:#A94073"/>
			<stop  offset="0.5103" style="stop-color:#9E3F75"/>
			<stop  offset="0.5326" style="stop-color:#953F77"/>
			<stop  offset="0.5603" style="stop-color:#A24075"/>
			<stop  offset="0.6038" style="stop-color:#AD4173"/>
			<stop  offset="0.6649" style="stop-color:#B44271"/>
			<stop  offset="0.8346" style="stop-color:#B64271"/>
			<stop  offset="0.9785" style="stop-color:#D22B5B"/>
		</linearGradient>
		<path style="fill:url(#SVGID_00000155861089572679008620000014161836350785169549_);" d="M1000.4,173.7
			c-75-1.3-92-35.8-117.7-88.1c-1.9-3.8-3.8-7.8-5.8-11.8c-28.4-56.7-84.7-57.7-115-58.3c-1.9,0-3.7-0.1-5.4-0.1l-15,0V13h15
			c1.7,0,3.5,0.1,5.4,0.1c30.8,0.6,88.1,1.6,117.2,59.6c2,4,4,8,5.9,11.8c26.3,53.3,42.1,85.4,115.6,86.7L1000.4,173.7z"/>
		
			<linearGradient id="SVGID_00000137122796748368003180000010008263025835422370_" gradientUnits="userSpaceOnUse" x1="741.3604" y1="79.7942" x2="1000.4426" y2="79.7942">
			<stop  offset="0.2248" style="stop-color:#D22B5B"/>
			<stop  offset="0.3729" style="stop-color:#D02C5C"/>
			<stop  offset="0.4263" style="stop-color:#C92E5F"/>
			<stop  offset="0.4643" style="stop-color:#BE3264"/>
			<stop  offset="0.4948" style="stop-color:#AD376C"/>
			<stop  offset="0.5209" style="stop-color:#973E76"/>
			<stop  offset="0.523" style="stop-color:#953F77"/>
			<stop  offset="0.5252" style="stop-color:#973E76"/>
			<stop  offset="0.552" style="stop-color:#AD376C"/>
			<stop  offset="0.5834" style="stop-color:#BE3264"/>
			<stop  offset="0.6225" style="stop-color:#C92E5F"/>
			<stop  offset="0.6774" style="stop-color:#D02C5C"/>
			<stop  offset="0.8297" style="stop-color:#D22B5B"/>
		</linearGradient>
		<path style="fill:url(#SVGID_00000137122796748368003180000010008263025835422370_);" d="M1000.4,159.6
			c-74.6-1.3-91.6-35.7-117.3-87.8c-1.9-3.8-3.8-7.8-5.8-11.8C848.8,3,792.2,2,761.8,1.4c-1.9,0-3.7-0.1-5.4-0.1h-15V0h15
			c1.7,0,3.5,0.1,5.4,0.1c30.7,0.6,87.8,1.6,116.7,59.3c2,4,4,8,5.9,11.8c26.4,53.5,42.3,85.7,116.1,87L1000.4,159.6z"/>
		
			<linearGradient id="SVGID_00000142177180643107470030000010216729882725962896_" gradientUnits="userSpaceOnUse" x1="741.3604" y1="147.5087" x2="1000.4908" y2="147.5087">
			<stop  offset="0" style="stop-color:#3F6CAE"/>
			<stop  offset="0.1938" style="stop-color:#416BAD"/>
			<stop  offset="0.2957" style="stop-color:#4969A8"/>
			<stop  offset="0.3763" style="stop-color:#5764A1"/>
			<stop  offset="0.4452" style="stop-color:#6A5D96"/>
			<stop  offset="0.5" style="stop-color:#7F568A"/>
			<stop  offset="0.6062" style="stop-color:#645F99"/>
			<stop  offset="0.7402" style="stop-color:#4868A9"/>
			<stop  offset="0.8175" style="stop-color:#3D6CAF"/>
		</linearGradient>
		<path style="fill:url(#SVGID_00000142177180643107470030000010216729882725962896_);" d="M1000.4,230.1
			c-76.3-1.3-93.6-36.3-119.7-89.3c-1.9-3.8-3.8-7.8-5.8-11.8c-27.8-55.5-83.2-56.5-113.1-57c-1.9,0-3.8-0.1-5.5-0.1l-15,0v-6.9h15
			c1.8,0,3.6,0.1,5.5,0.1c29,0.5,89.5,1.6,119.1,60.9c2,4,4,8,5.9,11.8c25.9,52.5,41.5,84.2,113.6,85.5L1000.4,230.1z"/>
		
			<linearGradient id="SVGID_00000090286788178220957220000017095420425453188481_" gradientUnits="userSpaceOnUse" x1="741.3604" y1="161.0517" x2="1000.5" y2="161.0517">
			<stop  offset="0" style="stop-color:#316EB2"/>
			<stop  offset="0.1337" style="stop-color:#356DB0"/>
			<stop  offset="0.2586" style="stop-color:#406AAB"/>
			<stop  offset="0.3799" style="stop-color:#5364A3"/>
			<stop  offset="0.4984" style="stop-color:#6D5C96"/>
			<stop  offset="0.535" style="stop-color:#775992"/>
			<stop  offset="0.5555" style="stop-color:#6C5C97"/>
			<stop  offset="0.6158" style="stop-color:#5264A3"/>
			<stop  offset="0.6778" style="stop-color:#406AAB"/>
			<stop  offset="0.7421" style="stop-color:#356DB0"/>
			<stop  offset="0.8123" style="stop-color:#316EB2"/>
		</linearGradient>
		<path style="fill:url(#SVGID_00000090286788178220957220000017095420425453188481_);" d="M1000.4,244.2
			c-76.7-1.3-94-36.5-120.2-89.6c-1.9-3.8-3.8-7.8-5.8-11.8C846.7,87.6,791.5,86.6,761.8,86c-1.9,0-3.8-0.1-5.5-0.1l-14.9,0v-8h15
			c1.8,0,3.6,0.1,5.5,0.1c29.2,0.5,89.8,1.6,119.6,61.2c2,4,4,8,5.9,11.8c25.8,52.3,41.4,83.9,113.1,85.1L1000.4,244.2z"/>
	</g>
	<g>
		<path class="st7" d="M0.5,270.6V99.3h110.4l-9,33.1H43.3v35.9h56.9l-8.3,32.4H43.3v70H0.5z"/>
		<path class="st7" d="M116.6,270.6V114.7l39.3-20.5v176.4H116.6z"/>
		<path class="st7" d="M163,211.1c0-12.8,3.6-24.7,10.9-35.6c7.3-10.9,16-18.4,26.2-22.6c10.2-4.2,19.6-6.3,28.3-6.3
			c18.1,0,31.9,4.8,41.5,14.4c9.6,9.6,16,18.3,19.3,26.1c3.3,7.8,4.9,15.9,4.9,24.3c0,8.1-1.6,16.1-4.9,24c-3.3,7.9-8,15-14.2,21.2
			c-6.2,6.2-13.3,10.9-21.3,14.2c-8,3.2-16.5,4.9-25.3,4.9c-8.7,0-18.2-2.1-28.3-6.2c-10.2-4.1-18.9-11.6-26.2-22.5
			C166.7,236,163,224.1,163,211.1z M200.4,211c0,9.2,2.6,16.8,7.9,22.7c5.2,5.9,12,8.8,20.2,8.8c8.1,0,14.8-3,20-9.1
			c5.4-5.7,8.1-13.1,8.1-22.2c0-9.2-2.7-16.8-8.1-22.7c-5.4-5.9-12.1-8.8-20-8.8c-7.9,0-14.6,3-20,9.1
			C203.1,194.8,200.4,202.2,200.4,211z"/>
		<path class="st7" d="M282.7,150.7h40l16.4,65.2l1.7,10.9l0.7,5.9l0.5,3.6l0.2-4.5c1-7.5,2-12.8,3.1-15.9l19.3-65.2h30.7l17.8,65.2
			c0.6,2.2,1.1,4.1,1.4,5.6c0.3,1.5,0.6,3.1,1,4.9l1.4,10l0.2-4.8l0.5-4.8l1.4-10.9l16.9-65.2h39.7l-38,119.9l-38.2,0.1l-17.2-60
			l-1.9-12.6l-0.7-5.7l-0.5-5.5l-0.5,4L378,198c-0.3,2.9-0.7,5.4-1.1,7.7c-0.4,2.3-0.8,3.9-1.1,4.9l-19,59.9l-36.3,0.1L282.7,150.7z
			"/>
	</g>
	<path class="st8" d="M854.5,146.8c-10.4-20.9-29.4-36.7-52.1-43.4c-22.6-6.6-46.9-3.6-66.7,8.3c-29.4,17.6-43.9,44.1-43.1,78.8
		c0.5,25,10.3,46.1,29.1,62.5c16.6,14.7,35.4,22.1,55.4,22.1c9.2,0,18.7-1.6,28.3-4.8c35.1-11.6,58.7-44.9,58.7-82.9v0
		C864,173.1,860.8,159.4,854.5,146.8z M831.2,189.7c-0.9,20.1-10.5,36-27.5,46c-20.4,12-45.7,8.2-62.9-9.6
		c-10.2-10.6-15.8-25.5-15.1-40.9c0.6-15.3,7.3-29.8,18.4-39.5c9.8-8.6,22-13.3,34.7-13.3c3.1,0,6.3,0.3,9.4,0.9
		c15.6,2.9,28.9,12.7,36.3,26.9C829,168.9,831,178,831.2,189.7z"/>
	<path class="st8" d="M712,197.6c-4.1-30.1-28-52.9-58.4-55.5l31.8-42.1l-15.5,0c-7.5,0-14.7,0-21.8,0.1c-2.6,0-4.9,1.8-6.1,3.5
		c-4.6,6-9.2,12.1-13.8,18.1c-11.6,15.1-23.5,30.7-34.8,46.4c-16.6,23.2-18,48.7-4,73.8c11.8,21.2,31.7,32.3,57.6,32.3c1,0,2,0,3,0
		c18.2-0.6,33.4-7.5,45.4-20.4C709.3,238.5,715,219.6,712,197.6z M646.7,174.1c9.1,0,17.4,3.3,23.5,9.4c6.3,6.3,9.8,15.2,9.8,24.9
		c0,19-14.4,33.3-33.4,33.3h0c-9.3,0-17.8-3.4-24-9.7c-6.2-6.3-9.6-14.8-9.5-24.2c0.1-19.2,14.5-33.7,33.6-33.7
		C646.7,174.1,646.7,174.1,646.7,174.1z"/>
	<path class="st8" d="M555.2,147.8l49.7-48.3l-4.5,0.5H495.1l-12.4,29h50.5l-42.4,48l39.4-5.3l0.1,0c19.4,1.1,34.6,17.2,34.6,36.7
		c0,20.3-16.5,36.8-36.7,36.8c-20.2,0-36.7-16.5-36.7-36.8v-1.7h-29.4v1.7c0,36.6,29.7,66.3,66.1,66.3s66.1-29.7,66.1-66.3
		C594.3,182,579,158.5,555.2,147.8z"/>
</g>
</svg>
