**ABCDEFGHIJKLMNOPQRSTUVWXYZabcdefghijklmnopqrstuvwxyz**************************
**PARASOLID !"#$%&'()*+,-./:;<=>?@[\]^_`{|}~0123456789**************************
**PART1;
MC=AMD64;
MC_MODEL=AMD64 Family 25 Model 8 Stepping 2, AuthenticAMD;
MC_ID=unknown;
OS=Windows_NT;
OS_RELEASE=unknown;
FRU=Parasolid Version 35.1, build 251, 11- 4-2023;
APPL=SOLIDWORKS 2024-2024016;
SITE=;
USER=unknown;
FORMAT=text;
GUISE=transmit;
KEY=cylinder_v2;
FILE=cylinder_v2.x_t;
DATE=Fri May 17 11:19:49 2024;
**PART2;
SCH=SCH_3501251_35102;
USFLD_SIZE=0;
**PART3;
**END_OF_HEADER*****************************************************************
T51 : TRANSMIT FILE created by modeller version 350125123 SCH_3501251_35102_1300
6231 0 12 36 CCCI7 lattice222 0 CCCI4 mesh1006 0 I8 polyline1008 0 CCCCCCCDI5 ow
ner1040 0 CCCI16 boundary_lattice222 0 CCCI13 boundary_mesh1006 0 I17 boundary_p
olyline1008 0 CCCA16 index_map_offset0 0 1 dA9 index_map82 0 A17 node_id_index_m
ap82 0 A20 schema_embedding_map82 0 A5 child12 0 A14 lowest_node_id0 0 1 dA16 me
sh_offset_data206 0 Z1 102 2 3 0 0 0 0 0 0 0 1e3 1e-8 0 4 0 1 0 1 1 5 0 6 7 0 0
 0 8 9 0 0 0 0 0 0 0 0 81 255 2 2 96 10 1 11 0 0 0 0 12 70 11 CI9 list_type0 0 1
 uI10 notransmit0 0 1 lCCCDCCDI12 finger_index0 0 1 dI12 finger_block1012 0 CZ3
 0 4 T1 0 0 11 20 1 13 13 13 255 5 31 0 1 0 14 0 0 15 0 51 255 6 30 0 14 16 0 0
 -0 0 .01760714246861955 0 0 -1 .01 -1 0 0 31 255 7 25 0 17 18 0 0 +0 0 0 0 0 1
 1 0 0 .01 19 9 CCCCCCI5 frame230 0 CA5 owner12 0 Z8 9 0 1 15 0 19 0 V0 16 255 9
 5 0 ?20 0 17 18 0 0 1 17 255 20 0 21 20 20 0 22 9 0 0 +16 17 20 0 ?23 9 0 7 0 0
 1 31 18 7 0 9 0 7 0 +0 0 .01760714246861955 0 0 1 1 0 0 .01 17 23 0 24 23 23 0
 25 17 0 0 +15 255 24 28 0 23 14 0 17 25 0 26 25 25 0 23 17 0 0 -15 26 19 0 25 2
7 0 14 255 27 18 28 ?0 29 26 5 16 -0 0 0 29 19 81 1 28 98 30 27 31 0 0 32 33 14
 29 1 32 ?27 14 21 5 34 +0 0 27 14 19 50 255 16 24 0 27 34 6 0 +0 0 0 0 0 1 1 0
 0 13 19 10 0 0 0 0 0 0 8 14 14 14 27 35 ?29 0 36 5 6 -0 0 29 0 19 81 1 35 102 3
0 14 37 0 32 0 38 15 36 26 0 22 14 24 17 22 0 36 22 22 0 20 9 0 0 -80 7 CCCCCDI1
2 legal_owners0 16 1 lCZ1 30 39 40 9000 1 1 1 1 1 1 1 1 0 FFFFTFTFFFFFFFFF1 81 3
 37 101 41 14 42 35 43 0 44 0 0 81 1 32 100 30 29 43 0 28 35 45 82 255 1 38 -946
798438 81 3 43 99 41 29 46 32 31 37 47 0 0 82 1 45 -948764518 80 3 41 48 49 9000
 0 0 0 0 3 5 0 0 0 FFFFTFFFFFFFFFFF1 1 1 81 1 46 84 50 29 0 43 42 51 52 81 3 31
 97 41 27 51 28 0 43 53 0 0 82 6 47 0 -719274033 31107179 0 0 0 81 1 51 85 50 27
 0 31 46 0 54 82 6 53 0 -719274033 31107179 0 0 0 80 1 50 0 55 8001 0 0 0 0 3 5
 0 0 0 FFFFTFTFFFFFFFFF2 83 255 3 54 .792156862745098 .819607843137255 .93333333
3333333 79 255 15 55 SDL/TYSA_COLOUR81 1 42 83 50 14 0 37 0 46 56 83 3 52 .79215
6862745098 .819607843137255 .933333333333333 83 3 56 .792156862745098 .819607843
137255 .933333333333333 79 18 49 DOWNSTREAM_FACE_ID82 6 44 0 -719274033 31107179
 0 0 0 79 14 40 SWEntUnchanged50 34 3 0 29 0 16 0 +0 0 .01760714246861955 0 0 1
 1 0 0 15 21 4 0 20 29 0 82 1 33 -947060582 19 15 32 0 1 0 8 5 0 S0 74 4 CI16 in
dex_map_offset0 0 1 dCCZ20 13 11 0 0 37 57 58 59 35 60 61 62 11 51 2 0 0 0 0 0 0
 0 0 0 81 2 57 50 63 1 0 58 0 0 0 64 81 2 58 53 65 1 57 59 0 0 0 66 81 2 59 54 6
7 1 58 60 0 0 68 0 81 1 60 58 69 1 59 61 0 0 70 81 2 61 64 71 1 60 62 0 0 72 0 8
1 2 62 68 73 1 61 11 0 0 0 74 81 2 11 74 75 1 62 2 0 0 0 0 80 2 75 76 77 9000 0
 0 0 0 3 5 0 0 0 FFTFFFFFFFFFFFFF9 1 79 16 77 BODY_RECIPE_200180 2 73 78 79 9000
 0 0 0 0 3 5 0 0 0 FFTFFFFFFFFFFFFF9 1 82 1 74 1 79 24 79 BODY_IN_LIGHTWEIGHT_PE
RM80 2 71 80 81 8004 0 0 0 0 3 5 0 0 0 FFTFFFFFFFFFFFFF2 3 83 1 72 1 79 16 81 SD
L/TYSA_DENSITY80 1 69 82 83 9000 1 1 1 1 1 1 1 1 0 FFTFFFFFFFFFFFFF1 82 1 70 510
57 79 10 83 BODY_MATCH80 2 67 84 85 9000 0 0 0 0 3 5 0 0 0 FFTFTTTFFTFFFFFF10 10
 98 255 13 68 66 111 115 115 45 69 120 116 114 117 100 101 49 79 23 85 SWIMPLICI
TBODYNAME_ID_U80 2 65 86 87 9000 0 0 0 0 3 5 0 0 0 FFTFFFFFFFFFFFFF9 1 82 1 66 3
3 79 30 87 LAST_BODY_MODIFYING_FEATURE_ID80 2 63 88 89 9000 0 0 0 0 3 5 0 0 0 FF
TFFFFFFFFFFFFF9 1 82 1 64 151 79 19 89 ENT_TIME_STAMP_200180 2 10 90 91 9000 0 0
 0 0 3 5 0 0 0 FFTFFFFFFFFFFFFF9 1 82 1 12 101 79 12 91 ATOM_ID_20011 0 
